<?xml version="1.0" encoding="UTF-8"?>
<!DOCTYPE svg PUBLIC "-//W3C//DTD SVG 1.1//EN" "http://www.w3.org/Graphics/SVG/1.1/DTD/svg11.dtd">
<svg xmlns="http://www.w3.org/2000/svg" version="1.1" width="512px" height="512px" style="shape-rendering:geometricPrecision; text-rendering:geometricPrecision; image-rendering:optimizeQuality; fill-rule:evenodd; clip-rule:evenodd" xmlns:xlink="http://www.w3.org/1999/xlink">
<g><path style="opacity:0.993" fill="#2196f3" d="M 511.5,69.5 C 511.5,86.5 511.5,103.5 511.5,120.5C 370.833,120.5 230.167,120.5 89.5,120.5C 89.3334,105.163 89.5001,89.8297 90,74.5C 90.8375,68.3135 94.0042,63.8135 99.5,61C 126.165,60.5 152.831,60.3334 179.5,60.5C 178.968,52.6465 179.802,44.9798 182,37.5C 185.017,32.4076 189.517,30.0743 195.5,30.5C 201.483,30.0743 205.983,32.4076 209,37.5C 210.432,45.0542 210.932,52.7208 210.5,60.5C 235.167,60.5 259.833,60.5 284.5,60.5C 284.033,52.6565 284.866,44.9898 287,37.5C 290.017,32.4076 294.517,30.0743 300.5,30.5C 306.483,30.0743 310.983,32.4076 314,37.5C 315.432,45.0542 315.932,52.7208 315.5,60.5C 340.5,60.5 365.5,60.5 390.5,60.5C 390.033,52.6565 390.866,44.9898 393,37.5C 396.017,32.4076 400.517,30.0743 406.5,30.5C 412.483,30.0743 416.983,32.4076 420,37.5C 421.432,45.0542 421.932,52.7208 421.5,60.5C 448.502,60.3334 475.502,60.5 502.5,61C 506.685,62.6878 509.685,65.5212 511.5,69.5 Z"/></g>
<g><path style="opacity:0.997" fill="#2196f3" d="M 511.5,150.5 C 511.5,153.833 511.5,157.167 511.5,160.5C 508.022,227.766 488.189,289.766 452,346.5C 442,361.176 430.5,374.676 417.5,387C 415.833,388 414.167,389 412.5,390C 277.833,390.667 143.167,390.667 8.5,390C 4.31481,388.312 1.31481,385.479 -0.5,381.5C -0.5,377.5 -0.5,373.5 -0.5,369.5C 50.0685,317.672 79.2352,255.339 87,182.5C 88.114,171.851 88.9474,161.184 89.5,150.5C 230.167,150.5 370.833,150.5 511.5,150.5 Z"/></g>
<g><path style="opacity:0.994" fill="#2196f3" d="M 511.5,296.5 C 511.5,354.833 511.5,413.167 511.5,471.5C 509.685,475.479 506.685,478.312 502.5,480C 368.167,480.667 233.833,480.667 99.5,480C 94.0042,477.187 90.8375,472.687 90,466.5C 89.5001,451.17 89.3334,435.837 89.5,420.5C 195.167,420.667 300.834,420.5 406.5,420C 416.449,419.795 425.449,416.795 433.5,411C 467.816,378.546 493.816,340.38 511.5,296.5 Z"/></g>
</svg>
