<?xml version="1.0" encoding="UTF-8"?>
<!DOCTYPE svg PUBLIC "-//W3C//DTD SVG 1.1//EN" "http://www.w3.org/Graphics/SVG/1.1/DTD/svg11.dtd">
<svg xmlns="http://www.w3.org/2000/svg" version="1.1" width="512px" height="512px" style="shape-rendering:geometricPrecision; text-rendering:geometricPrecision; image-rendering:optimizeQuality; fill-rule:evenodd; clip-rule:evenodd" xmlns:xlink="http://www.w3.org/1999/xlink">
<g><path style="opacity:0.981" fill="#2196f3" d="M -0.5,84.5 C 170.167,84.5 340.833,84.5 511.5,84.5C 511.5,103.833 511.5,123.167 511.5,142.5C 340.833,142.5 170.167,142.5 -0.5,142.5C -0.5,123.167 -0.5,103.833 -0.5,84.5 Z"/></g>
<g><path style="opacity:0.979" fill="#2196f3" d="M 84.5,226.5 C 198.5,226.5 312.5,226.5 426.5,226.5C 426.5,245.833 426.5,265.167 426.5,284.5C 312.5,284.5 198.5,284.5 84.5,284.5C 84.5,265.167 84.5,245.833 84.5,226.5 Z"/></g>
<g><path style="opacity:0.979" fill="#2196f3" d="M 198.5,368.5 C 236.5,368.5 274.5,368.5 312.5,368.5C 312.5,387.833 312.5,407.167 312.5,426.5C 274.5,426.5 236.5,426.5 198.5,426.5C 198.5,407.167 198.5,387.833 198.5,368.5 Z"/></g>
</svg>
