<?xml version="1.0" encoding="UTF-8"?>
<!DOCTYPE svg PUBLIC "-//W3C//DTD SVG 1.1//EN" "http://www.w3.org/Graphics/SVG/1.1/DTD/svg11.dtd">
<svg xmlns="http://www.w3.org/2000/svg" version="1.1" width="512px" height="512px" style="shape-rendering:geometricPrecision; text-rendering:geometricPrecision; image-rendering:optimizeQuality; fill-rule:evenodd; clip-rule:evenodd" xmlns:xlink="http://www.w3.org/1999/xlink">
<g><path style="opacity:0.981" fill="#FFFFFF" d="M 96.5,101.5 C 202.501,101.333 308.501,101.5 414.5,102C 432.463,108.091 438.629,120.258 433,138.5C 429.173,146.328 423.006,151.161 414.5,153C 308.5,153.667 202.5,153.667 96.5,153C 78.5372,146.909 72.3705,134.742 78,116.5C 81.9945,108.658 88.1611,103.658 96.5,101.5 Z"/></g>
<g><path style="opacity:0.978" fill="#FFFFFF" d="M 96.5,229.5 C 151.501,229.333 206.501,229.5 261.5,230C 276.488,235.127 282.988,245.627 281,261.5C 278.5,272 272,278.5 261.5,281C 206.5,281.667 151.5,281.667 96.5,281C 78.5372,274.909 72.3705,262.742 78,244.5C 81.9945,236.658 88.1611,231.658 96.5,229.5 Z"/></g>
<g><path style="opacity:0.981" fill="#FFFFFF" d="M 96.5,357.5 C 202.501,357.333 308.501,357.5 414.5,358C 432.463,364.091 438.629,376.258 433,394.5C 429.173,402.328 423.006,407.161 414.5,409C 308.5,409.667 202.5,409.667 96.5,409C 78.5372,402.909 72.3705,390.742 78,372.5C 81.9945,364.658 88.1611,359.658 96.5,357.5 Z"/></g>
</svg>
